<?xml version="1.0" encoding="utf-8"?>
<!-- Generator: Adobe Illustrator 25.4.1, SVG Export Plug-In . SVG Version: 6.00 Build 0)  -->
<svg version="1.1" id="Persona" xmlns="http://www.w3.org/2000/svg" xmlns:xlink="http://www.w3.org/1999/xlink" x="0px" y="0px"
	 viewBox="0 0 588 600" style="enable-background:new 0 0 588 600;" xml:space="preserve">
<style type="text/css">
	.st0{fill:#FFFFFF;}
	.st1{fill:#4D77BB;}
	.st2{fill:#252D43;}
</style>
<rect class="st0" width="588" height="600"/>
<g>
	<path id="Cabeza" class="st1" d="M399.6,72.6c-15.4,3.7-31.2,16.4-37.8,30.4c-5,10.4-5.9,14.6-5.9,26.4c0,15.4,2.9,24.4,11.7,36.1
		C379,180.6,396,189,415.4,189c22,0,41.2-11.4,52.4-31.3c4.2-7.3,6.4-16.6,6.5-27.7c0.2-11.7-1.4-18.3-6.6-28.2
		C460.4,88,447.1,77.2,432,73.1C423.1,70.6,408.6,70.4,399.6,72.6z"/>
	<path id="Cuerpo" class="st1" d="M365.5,183.6c-9.4,4.8-17.5,11.4-23,18.8C332.2,216,329,227.1,329,249c0,20.5,0.3,20.9,17.8,21
		H359v-18.5c0-18.4,0-18.6,2.5-21c1.3-1.4,3.4-2.5,4.5-2.5c1.2,0,3.2,1.1,4.5,2.5c2.5,2.4,2.5,2.6,2.5,20.8v18.5l41.4,0.7
		c22.8,0.4,41.9,0.4,42.6,0c0.8-0.5,1.1-5.9,1-17.8c-0.1-9.5-0.1-17.8-0.1-18.5c0.1-1.9,3.9-5.2,5.9-5.2c1,0,2.7,0.6,3.8,1.4
		c1.7,1.3,1.9,3.1,2.4,20.8l0.5,19.3l11.1,0.3c12.8,0.3,15.6-0.5,18.4-5c1.7-2.8,2-5.1,2-15.5c0-25.1-6.3-42-20.8-55.8
		c-5.9-5.6-18.6-13.5-21.8-13.5c-1.2,0-3.2,0.8-4.5,1.9c-13.7,10.7-36,16.1-52.7,12.6c-8.8-1.8-19.8-6.6-25.9-11.3
		c-2.4-1.7-4.7-3.2-5.1-3.2S368.3,182.2,365.5,183.6z"/>
	<g id="Ojos">
		<path class="st2" d="M387.6,123.9c-5.9,5.9-2.2,15,6.1,15c5.4,0,9-3.8,9-9.4c0-3.8-5-8.5-9-8.5C391.5,121,389.6,121.9,387.6,123.9
			z"/>
		<path class="st2" d="M431.8,123.6c-6.5,5.4-2.8,15.4,5.7,15.4c5.3,0,8.7-3.6,8.7-9.2C446.2,122,437.9,118.4,431.8,123.6z"/>
	</g>
</g>
<g>
	<path id="Cabeza_00000151534491780645848260000010843804384074397605_" class="st1" d="M146.6,72.6c-15.4,3.7-31.2,16.4-37.8,30.4
		c-5,10.4-5.9,14.6-5.9,26.4c0,15.4,2.9,24.4,11.7,36.1c11.4,15.1,28.4,23.5,47.8,23.5c22,0,41.2-11.4,52.4-31.3
		c4.2-7.3,6.4-16.6,6.5-27.7c0.2-11.7-1.4-18.3-6.6-28.2c-7.3-13.8-20.6-24.6-35.7-28.7C170.1,70.6,155.6,70.4,146.6,72.6z"/>
	<path id="Cuerpo_00000112597946000885067130000000340179806042060691_" class="st1" d="M112.5,183.6c-9.4,4.8-17.5,11.4-23,18.8
		C79.2,216,76,227.1,76,249c0,20.5,0.3,20.9,17.8,21H106v-18.5c0-18.4,0-18.6,2.5-21c1.3-1.4,3.4-2.5,4.5-2.5c1.2,0,3.2,1.1,4.5,2.5
		c2.5,2.4,2.5,2.6,2.5,20.8v18.5l41.4,0.7c22.8,0.4,41.9,0.4,42.6,0c0.8-0.5,1.1-5.9,1-17.8c-0.1-9.5-0.1-17.8-0.1-18.5
		c0.1-1.9,3.9-5.2,5.9-5.2c1,0,2.7,0.6,3.8,1.4c1.7,1.3,1.9,3.1,2.4,20.8l0.5,19.3l11.1,0.3c12.8,0.3,15.6-0.5,18.4-5
		c1.7-2.8,2-5.1,2-15.5c0-25.1-6.3-42-20.8-55.8c-5.9-5.6-18.6-13.5-21.8-13.5c-1.2,0-3.2,0.8-4.5,1.9c-13.7,10.7-36,16.1-52.7,12.6
		c-8.8-1.8-19.8-6.6-25.9-11.3c-2.4-1.7-4.7-3.2-5.1-3.2S115.2,182.2,112.5,183.6z"/>
	<g id="Ojos_00000066504083315186498060000009482119145059915450_">
		<path class="st2" d="M134.6,123.9c-5.9,5.9-2.2,15,6.1,15c5.4,0,9-3.8,9-9.4c0-3.8-5-8.5-9-8.5C138.5,121,136.6,121.9,134.6,123.9
			z"/>
		<path class="st2" d="M178.8,123.6c-6.5,5.4-2.8,15.4,5.7,15.4c5.3,0,8.7-3.6,8.7-9.2C193.2,122,184.9,118.4,178.8,123.6z"/>
	</g>
</g>
<g>
	<path id="Cabeza_00000015340050490502377610000007771465855870572971_" class="st1" d="M399.2,336.4c-15.4,3.7-31.2,16.4-37.8,30.4
		c-5,10.4-5.9,14.6-5.9,26.4c0,15.4,2.9,24.4,11.7,36.1c11.4,15.1,28.4,23.5,47.8,23.5c22,0,41.2-11.4,52.4-31.3
		c4.2-7.3,6.4-16.6,6.5-27.7c0.2-11.7-1.4-18.3-6.6-28.2c-7.3-13.8-20.6-24.6-35.7-28.7C422.7,334.4,408.2,334.2,399.2,336.4z"/>
	<path id="Cuerpo_00000135649645485596128510000009852158249038243741_" class="st1" d="M365.1,447.4c-9.4,4.8-17.5,11.4-23,18.8
		c-10.3,13.6-13.5,24.7-13.5,46.6c0,20.5,0.3,20.9,17.8,21h12.2v-18.5c0-18.4,0-18.6,2.5-21c1.3-1.4,3.4-2.5,4.5-2.5
		c1.2,0,3.2,1.1,4.5,2.5c2.5,2.4,2.5,2.6,2.5,20.8v18.5l41.4,0.7c22.8,0.4,41.9,0.4,42.6,0c0.8-0.5,1.1-5.9,1-17.8
		c-0.1-9.5-0.1-17.8-0.1-18.5c0.1-1.9,3.9-5.2,5.9-5.2c1,0,2.7,0.6,3.8,1.4c1.7,1.3,1.9,3.1,2.4,20.8l0.5,19.3l11.1,0.3
		c12.8,0.3,15.6-0.5,18.4-5c1.7-2.8,2-5.1,2-15.5c0-25.1-6.3-42-20.8-55.8c-5.9-5.6-18.6-13.5-21.8-13.5c-1.2,0-3.2,0.8-4.5,1.9
		c-13.7,10.7-36,16.1-52.7,12.6c-8.8-1.8-19.8-6.6-25.9-11.3c-2.4-1.7-4.7-3.2-5.1-3.2S367.9,446,365.1,447.4z"/>
	<g id="Ojos_00000043448710688813034030000012396752784612800697_">
		<path class="st2" d="M387.3,387.7c-5.9,5.9-2.2,15,6.1,15c5.4,0,9-3.8,9-9.4c0-3.8-5-8.5-9-8.5
			C391.2,384.8,389.3,385.7,387.3,387.7z"/>
		<path class="st2" d="M431.5,387.4c-6.5,5.4-2.8,15.4,5.7,15.4c5.3,0,8.7-3.6,8.7-9.2C445.9,385.8,437.6,382.2,431.5,387.4z"/>
	</g>
</g>
<g>
	<path id="Cabeza_00000021104786322168544550000013984277520630328732_" class="st2" d="M146.2,336.4c-15.4,3.7-31.2,16.4-37.8,30.4
		c-5,10.4-5.9,14.6-5.9,26.4c0,15.4,2.9,24.4,11.7,36.1c11.4,15.1,28.4,23.5,47.8,23.5c22,0,41.2-11.4,52.4-31.3
		c4.2-7.3,6.4-16.6,6.5-27.7c0.2-11.7-1.4-18.3-6.6-28.2c-7.3-13.8-20.6-24.6-35.7-28.7C169.7,334.4,155.2,334.2,146.2,336.4z"/>
	<path id="Cuerpo_00000000190765898309038770000013280283355849943460_" class="st2" d="M112.1,447.4c-9.4,4.8-17.5,11.4-23,18.8
		c-10.3,13.6-13.5,24.7-13.5,46.6c0,20.5,0.3,20.9,17.8,21h12.2v-18.5c0-18.4,0-18.6,2.5-21c1.3-1.4,3.4-2.5,4.5-2.5
		c1.2,0,3.2,1.1,4.5,2.5c2.5,2.4,2.5,2.6,2.5,20.8v18.5l41.4,0.7c22.8,0.4,41.9,0.4,42.6,0c0.8-0.5,1.1-5.9,1-17.8
		c-0.1-9.5-0.1-17.8-0.1-18.5c0.1-1.9,3.9-5.2,5.9-5.2c1,0,2.7,0.6,3.8,1.4c1.7,1.3,1.9,3.1,2.4,20.8l0.5,19.3l11.1,0.3
		c12.8,0.3,15.6-0.5,18.4-5c1.7-2.8,2-5.1,2-15.5c0-25.1-6.3-42-20.8-55.8c-5.9-5.6-18.6-13.5-21.8-13.5c-1.2,0-3.2,0.8-4.5,1.9
		c-13.7,10.7-36,16.1-52.7,12.6c-8.8-1.8-19.8-6.6-25.9-11.3c-2.4-1.7-4.7-3.2-5.1-3.2S114.9,446,112.1,447.4z"/>
	<g id="Cara_Impostor">
		<path class="st0" d="M182.4,367c-2.2,0.8-5.1,2.6-6.5,4c-2.3,2.3-2.3,2.6-0.7,3.2c1.7,0.7,21.2-2.9,22.4-4.1
			c0.3-0.3-0.1-1.2-0.9-2C194.5,365.9,186.9,365.3,182.4,367z"/>
		<path class="st0" d="M125.4,372.9c-1,0.7-1.6,1.9-1.2,2.5c0.8,1.4,7.1,3.2,10.9,3.2c3.3,0,3.3,0.3,0.6,4
			c-5.4,7.2,2.9,16.7,11,12.6c5.6-2.9,6.4-11.1,1.4-14.3l-2.5-1.7l2.2-0.8c5.4-2-1.9-5.3-14-6.4C129,371.6,126.8,371.8,125.4,372.9z
			"/>
		<path class="st0" d="M186.3,379.8c-3.1,1.8-4.4,4-4.5,7.3c0,4.1,2.4,7.3,6.3,8.3c4.6,1.2,8.3-0.3,10.1-4.3c1.5-3,1.5-3.8,0.2-6.9
			C196.2,379,191,377.1,186.3,379.8z"/>
		<path class="st0" d="M177.5,412.3c-4,2.1-10.2,4.2-15.2,5.2c-4.7,0.9-8.5,1.9-8.5,2.2c0,0.9,6.7,1.9,13.4,1.9c7.3,0,14-3,16.7-7.4
			c1.9-3.2,2.5-5.7,1.2-5.5C184.6,408.8,181.2,410.4,177.5,412.3z"/>
	</g>
</g>
</svg>
