<?xml version="1.0" encoding="UTF-8" ?>
<!DOCTYPE svg PUBLIC "-//W3C//DTD SVG 1.1//EN" "http://www.w3.org/Graphics/SVG/1.1/DTD/svg11.dtd">
<svg width="1536pt" height="1024pt" viewBox="0 0 1536 1024" version="1.1" xmlns="http://www.w3.org/2000/svg">
<g id="#fdfdfdff">
<path fill="#fdfdfd" opacity="1.00" d=" M 0.00 0.00 L 1536.00 0.00 L 1536.00 1024.00 L 0.00 1024.00 L 0.00 0.00 M 541.34 190.15 C 516.40 195.67 492.50 208.16 475.69 227.68 C 466.28 237.98 459.47 250.41 454.31 263.31 C 446.29 283.57 443.33 305.38 441.99 327.00 C 440.71 355.31 441.51 383.67 441.22 412.00 C 441.26 491.68 441.07 571.36 441.20 651.04 C 441.86 671.23 442.55 691.53 446.45 711.41 C 450.53 738.55 462.95 764.96 483.59 783.40 C 497.72 796.63 515.60 805.38 534.02 810.95 C 550.11 816.29 567.09 818.03 583.88 819.54 C 589.48 819.75 595.12 820.37 600.72 819.85 C 606.80 820.40 612.91 820.00 619.00 820.11 C 700.33 820.11 781.67 820.09 863.00 820.14 C 886.76 819.92 910.55 820.52 934.31 819.90 C 936.94 820.44 939.64 819.88 942.30 819.72 C 960.57 819.14 978.88 817.02 996.61 812.45 C 1017.08 806.66 1036.82 797.11 1052.59 782.65 C 1064.52 772.04 1073.77 758.67 1080.14 744.07 C 1085.41 732.80 1088.04 720.57 1090.56 708.46 C 1092.21 699.54 1093.69 690.47 1093.68 681.39 C 1094.34 677.17 1094.65 672.84 1094.16 668.59 C 1095.74 658.16 1094.88 647.51 1095.08 636.99 C 1095.04 563.66 1095.09 490.33 1095.04 417.00 C 1094.90 389.53 1095.39 362.05 1094.53 334.59 C 1094.35 321.34 1093.27 308.08 1090.98 295.02 C 1087.75 280.02 1083.97 264.92 1076.75 251.27 C 1069.97 238.68 1061.31 226.97 1050.40 217.66 C 1028.21 198.25 998.89 189.06 970.00 185.97 C 950.73 184.12 931.34 184.01 912.00 184.07 C 828.00 184.16 744.00 184.17 660.00 184.08 C 633.65 184.23 607.30 183.71 580.97 184.58 C 567.68 185.71 554.26 186.61 541.34 190.15 Z" />
<path fill="#fdfdfd" opacity="1.00" d=" M 605.31 255.32 C 618.68 250.74 633.52 249.74 647.15 253.82 C 665.34 258.75 681.20 271.48 689.84 288.25 C 697.30 302.23 699.21 318.75 696.42 334.25 C 693.48 350.18 684.66 364.94 672.02 375.07 C 669.58 377.11 666.91 378.86 664.56 381.00 C 670.76 380.86 677.20 379.96 683.21 381.98 C 686.11 382.82 689.15 382.35 692.13 382.47 C 697.24 369.51 701.48 356.18 707.53 343.60 C 709.85 338.87 711.91 334.01 714.21 329.27 C 718.21 320.84 726.71 314.70 736.01 313.70 C 742.08 313.02 748.07 314.60 754.05 315.46 C 760.00 315.91 765.98 316.71 771.97 316.29 C 779.34 315.52 786.70 314.59 794.05 313.65 C 805.15 312.22 816.49 318.48 821.69 328.29 C 830.92 345.65 837.11 364.39 844.24 382.65 C 847.62 382.53 851.18 382.94 854.16 381.00 C 860.06 379.63 866.17 381.15 872.16 381.02 C 869.14 378.23 865.40 376.40 862.31 373.72 C 852.93 365.23 845.09 354.68 841.50 342.43 C 835.16 322.44 837.91 299.37 850.19 282.17 C 859.39 268.29 873.77 258.04 889.86 253.82 C 902.46 250.26 916.07 250.70 928.61 254.33 C 942.74 258.88 955.59 267.71 964.13 279.95 C 972.32 291.54 977.48 305.69 976.81 320.00 C 976.67 323.63 976.24 327.24 975.86 330.86 C 954.49 334.96 935.04 347.94 923.24 366.24 C 917.31 376.29 912.68 387.36 911.52 399.07 C 910.82 410.78 910.69 422.97 914.93 434.10 C 918.35 444.92 925.14 454.19 932.19 462.91 C 924.99 466.11 918.21 470.21 911.94 474.96 C 899.62 485.13 889.95 498.54 884.64 513.64 C 881.99 522.21 880.35 531.05 878.65 539.84 C 881.54 546.05 885.67 551.73 887.57 558.40 C 892.31 572.45 891.71 587.42 893.41 601.97 C 895.91 627.90 896.53 653.95 898.65 679.91 C 898.99 688.28 899.61 696.64 900.01 705.01 C 900.16 708.52 900.71 712.10 899.94 715.60 C 896.69 715.95 893.55 717.74 890.26 717.10 C 890.75 711.05 889.99 705.00 889.69 698.97 C 888.82 682.32 887.68 665.70 886.40 649.09 C 885.08 632.25 884.26 615.37 882.60 598.56 C 881.00 583.71 880.83 568.06 873.51 554.60 C 865.91 538.81 851.40 527.75 836.20 519.82 C 828.30 515.88 820.48 511.59 811.91 509.29 C 816.33 505.24 821.49 502.04 825.46 497.49 C 842.75 480.27 848.73 454.25 845.05 430.60 C 822.41 435.95 799.30 439.52 776.02 439.95 C 752.03 440.40 727.91 438.58 704.42 433.57 C 699.98 432.50 695.51 431.60 691.04 430.74 C 688.91 443.51 689.81 456.81 693.89 469.10 C 698.45 484.53 708.91 497.83 721.88 507.15 C 722.32 507.89 724.66 508.49 723.60 509.51 C 706.51 515.67 690.01 524.20 676.41 536.38 C 671.94 540.34 668.42 545.21 665.15 550.17 C 657.83 560.59 655.37 573.53 654.53 586.01 C 650.60 624.57 648.31 663.28 646.34 701.99 C 646.21 707.03 645.39 712.07 645.84 717.12 C 642.43 717.31 639.28 715.75 636.03 715.01 C 635.94 697.97 638.11 681.04 638.61 664.03 C 640.29 633.95 642.21 603.88 645.14 573.90 C 646.64 561.78 650.75 549.93 657.63 539.80 C 655.94 531.45 654.37 523.05 651.91 514.88 C 646.21 498.75 636.38 483.77 622.53 473.51 C 616.93 469.49 611.23 465.50 604.82 462.88 C 607.76 458.49 611.33 454.56 614.04 450.02 C 630.20 423.77 629.04 387.99 611.07 362.93 C 598.82 346.56 580.69 334.22 560.38 330.75 C 557.24 314.44 561.17 297.13 570.31 283.35 C 578.46 270.47 591.09 260.68 605.31 255.32 M 724.90 332.87 C 719.02 342.93 715.41 354.08 710.76 364.73 C 708.86 369.20 707.69 373.98 705.45 378.32 C 703.17 383.19 701.39 388.29 699.37 393.27 C 689.58 392.39 679.77 393.17 670.00 393.80 C 664.83 394.51 659.39 395.15 654.80 397.79 C 651.90 399.61 653.06 403.81 655.27 405.72 C 659.01 409.16 663.45 411.79 668.01 414.00 C 693.33 424.56 720.73 428.93 747.94 430.86 C 770.34 432.62 792.84 431.00 815.04 427.90 C 834.06 424.95 853.11 420.77 870.69 412.71 C 875.12 410.41 879.99 407.96 882.48 403.41 C 883.65 401.36 882.38 398.64 880.39 397.65 C 876.29 395.44 871.59 394.78 867.05 394.15 C 856.99 392.95 846.82 392.96 836.72 393.34 C 834.40 388.73 833.25 383.66 830.86 379.08 C 826.12 365.03 820.58 351.21 814.13 337.85 C 812.49 334.37 810.55 330.94 807.69 328.31 C 804.23 325.32 799.47 324.32 795.01 324.75 C 787.31 325.66 779.71 327.25 772.02 328.19 C 760.50 329.24 749.41 324.73 737.97 324.72 C 732.40 324.52 727.60 328.25 724.90 332.87 Z" />
<path fill="#fdfdfd" opacity="1.00" d=" M 515.17 349.15 C 532.77 339.91 554.40 338.69 572.85 346.15 C 587.55 352.22 600.12 363.46 607.42 377.63 C 614.53 391.70 616.59 408.19 613.36 423.61 C 610.78 434.26 605.57 444.16 598.68 452.64 C 592.88 459.36 585.52 464.42 577.90 468.85 C 587.46 471.63 597.22 474.16 605.93 479.13 C 618.56 485.51 629.64 495.68 635.09 508.94 C 639.27 517.48 640.50 527.00 641.72 536.32 C 641.86 538.40 642.83 540.66 641.63 542.61 C 636.84 552.25 632.34 562.30 631.31 573.15 C 629.63 595.50 627.36 617.79 625.92 640.17 C 586.59 647.45 545.98 649.03 506.44 642.48 C 496.69 641.16 487.07 639.06 477.62 636.34 C 468.94 633.73 460.10 631.26 452.18 626.74 C 451.52 625.25 451.80 623.56 451.70 622.00 C 451.54 595.29 452.71 568.60 454.89 541.99 C 455.90 532.97 456.09 523.74 459.01 515.07 C 461.73 506.44 467.24 498.95 473.55 492.59 C 486.24 480.91 502.53 473.91 519.05 469.57 C 516.54 467.75 513.66 466.57 511.04 464.94 C 498.24 456.24 487.63 443.67 483.30 428.62 C 478.49 415.07 479.01 400.00 483.44 386.42 C 488.80 370.57 500.43 357.02 515.17 349.15 Z" />
<path fill="#fdfdfd" opacity="1.00" d=" M 948.65 354.65 C 963.93 342.91 984.43 338.68 1003.20 342.73 C 1019.24 345.87 1033.75 355.53 1043.48 368.56 C 1059.91 390.63 1060.66 423.14 1044.70 445.64 C 1038.58 455.70 1029.27 463.47 1018.97 468.99 C 1019.83 470.03 1021.33 470.10 1022.53 470.61 C 1033.69 474.34 1044.67 478.90 1054.43 485.55 C 1068.36 494.36 1077.65 509.71 1079.80 525.97 C 1083.62 559.39 1084.83 593.06 1084.69 626.68 C 1076.75 630.64 1068.22 633.19 1059.75 635.70 C 1033.55 643.33 1006.20 646.04 979.00 646.44 C 955.94 646.63 932.78 644.83 910.24 639.87 C 909.18 632.56 909.22 625.15 908.51 617.80 C 907.51 607.54 906.92 597.25 905.88 586.99 C 905.10 580.17 905.10 573.26 903.54 566.55 C 902.06 559.10 899.18 552.03 895.66 545.34 C 893.52 541.84 894.99 537.69 895.13 533.90 C 896.31 525.75 897.21 517.37 900.74 509.84 C 905.32 498.65 914.05 489.63 923.97 482.96 C 934.76 476.53 946.48 471.06 959.02 469.34 C 958.36 468.54 957.59 467.82 956.68 467.36 C 941.19 458.82 928.83 444.24 924.06 427.10 C 916.23 400.95 926.45 370.58 948.65 354.65 Z" />
</g>
<g id="#2a3a76ff">
<path fill="#2a3a76" opacity="1.00" d=" M 541.34 190.15 C 554.26 186.61 567.68 185.71 580.97 184.58 C 607.30 183.71 633.65 184.23 660.00 184.08 C 744.00 184.17 828.00 184.16 912.00 184.07 C 931.34 184.01 950.73 184.12 970.00 185.97 C 998.89 189.06 1028.21 198.25 1050.40 217.66 C 1061.31 226.97 1069.97 238.68 1076.75 251.27 C 1083.97 264.92 1087.75 280.02 1090.98 295.02 C 1093.27 308.08 1094.35 321.34 1094.53 334.59 C 1095.39 362.05 1094.90 389.53 1095.04 417.00 C 1095.09 490.33 1095.04 563.66 1095.08 636.99 C 1094.88 647.51 1095.74 658.16 1094.16 668.59 C 1092.61 672.69 1092.64 677.17 1093.68 681.39 C 1093.69 690.47 1092.21 699.54 1090.56 708.46 C 1088.04 720.57 1085.41 732.80 1080.14 744.07 C 1073.77 758.67 1064.52 772.04 1052.59 782.65 C 1036.82 797.11 1017.08 806.66 996.61 812.45 C 978.88 817.02 960.57 819.14 942.30 819.72 C 939.64 819.88 936.94 820.44 934.31 819.90 C 929.27 818.79 924.09 819.49 918.99 819.34 C 816.66 819.29 714.32 819.37 611.99 819.33 C 608.22 819.25 604.44 819.15 600.72 819.85 C 595.12 820.37 589.48 819.75 583.88 819.54 C 567.09 818.03 550.11 816.29 534.02 810.95 C 515.60 805.38 497.72 796.63 483.59 783.40 C 462.95 764.96 450.53 738.55 446.45 711.41 C 442.55 691.53 441.86 671.23 441.20 651.04 C 441.07 571.36 441.26 491.68 441.22 412.00 C 441.51 383.67 440.71 355.31 441.99 327.00 C 443.33 305.38 446.29 283.57 454.31 263.31 C 459.47 250.41 466.28 237.98 475.69 227.68 C 492.50 208.16 516.40 195.67 541.34 190.15 M 605.31 255.32 C 591.09 260.68 578.46 270.47 570.31 283.35 C 561.17 297.13 557.24 314.44 560.38 330.75 C 580.69 334.22 598.82 346.56 611.07 362.93 C 629.04 387.99 630.20 423.77 614.04 450.02 C 611.33 454.56 607.76 458.49 604.82 462.88 C 611.23 465.50 616.93 469.49 622.53 473.51 C 636.38 483.77 646.21 498.75 651.91 514.88 C 654.37 523.05 655.94 531.45 657.63 539.80 C 650.75 549.93 646.64 561.78 645.14 573.90 C 642.21 603.88 640.29 633.95 638.61 664.03 C 638.11 681.04 635.94 697.97 636.03 715.01 C 639.28 715.75 642.43 717.31 645.84 717.12 L 645.89 717.86 C 651.43 718.63 656.80 720.26 662.19 721.72 C 694.59 729.10 727.82 732.40 761.02 733.07 C 776.03 733.58 791.02 732.39 806.01 731.69 C 834.37 729.39 862.67 725.19 890.20 717.84 L 890.26 717.10 C 893.55 717.74 896.69 715.95 899.94 715.60 C 900.71 712.10 900.16 708.52 900.01 705.01 C 899.61 696.64 898.99 688.28 898.65 679.91 C 896.53 653.95 895.91 627.90 893.41 601.97 C 891.71 587.42 892.31 572.45 887.57 558.40 C 885.67 551.73 881.54 546.05 878.65 539.84 C 880.35 531.05 881.99 522.21 884.64 513.64 C 889.95 498.54 899.62 485.13 911.94 474.96 C 918.21 470.21 924.99 466.11 932.19 462.91 C 925.14 454.19 918.35 444.92 914.93 434.10 C 910.69 422.97 910.82 410.78 911.52 399.07 C 912.68 387.36 917.31 376.29 923.24 366.24 C 935.04 347.94 954.49 334.96 975.86 330.86 C 976.24 327.24 976.67 323.63 976.81 320.00 C 977.48 305.69 972.32 291.54 964.13 279.95 C 955.59 267.71 942.74 258.88 928.61 254.33 C 916.07 250.70 902.46 250.26 889.86 253.82 C 873.77 258.04 859.39 268.29 850.19 282.17 C 837.91 299.37 835.16 322.44 841.50 342.43 C 845.09 354.68 852.93 365.23 862.31 373.72 C 865.40 376.40 869.14 378.23 872.16 381.02 C 866.17 381.15 860.06 379.63 854.16 381.00 C 851.18 382.94 847.62 382.53 844.24 382.65 C 837.11 364.39 830.92 345.65 821.69 328.29 C 816.49 318.48 805.15 312.22 794.05 313.65 C 786.70 314.59 779.34 315.52 771.97 316.29 C 765.98 316.71 760.00 315.91 754.05 315.46 C 748.07 314.60 742.08 313.02 736.01 313.70 C 726.71 314.70 718.21 320.84 714.21 329.27 C 711.91 334.01 709.85 338.87 707.53 343.60 C 701.48 356.18 697.24 369.51 692.13 382.47 C 689.15 382.35 686.11 382.82 683.21 381.98 C 677.20 379.96 670.76 380.86 664.56 381.00 C 666.91 378.86 669.58 377.11 672.02 375.07 C 684.66 364.94 693.48 350.18 696.42 334.25 C 699.21 318.75 697.30 302.23 689.84 288.25 C 681.20 271.48 665.34 258.75 647.15 253.82 C 633.52 249.74 618.68 250.74 605.31 255.32 M 515.17 349.15 C 500.43 357.02 488.80 370.57 483.44 386.42 C 479.01 400.00 478.49 415.07 483.30 428.62 C 487.63 443.67 498.24 456.24 511.04 464.94 C 513.66 466.57 516.54 467.75 519.05 469.57 C 502.53 473.91 486.24 480.91 473.55 492.59 C 467.24 498.95 461.73 506.44 459.01 515.07 C 456.09 523.74 455.90 532.97 454.89 541.99 C 452.71 568.60 451.54 595.29 451.70 622.00 C 451.80 623.56 451.52 625.25 452.18 626.74 C 460.10 631.26 468.94 633.73 477.62 636.34 C 487.07 639.06 496.69 641.16 506.44 642.48 C 545.98 649.03 586.59 647.45 625.92 640.17 C 627.36 617.79 629.63 595.50 631.31 573.15 C 632.34 562.30 636.84 552.25 641.63 542.61 C 642.83 540.66 641.86 538.40 641.72 536.32 C 640.50 527.00 639.27 517.48 635.09 508.94 C 629.64 495.68 618.56 485.51 605.93 479.13 C 597.22 474.16 587.46 471.63 577.90 468.85 C 585.52 464.42 592.88 459.36 598.68 452.64 C 605.57 444.16 610.78 434.26 613.36 423.61 C 616.59 408.19 614.53 391.70 607.42 377.63 C 600.12 363.46 587.55 352.22 572.85 346.15 C 554.40 338.69 532.77 339.91 515.17 349.15 M 948.65 354.65 C 926.45 370.58 916.23 400.95 924.06 427.10 C 928.83 444.24 941.19 458.82 956.68 467.36 C 957.59 467.82 958.36 468.54 959.02 469.34 C 946.48 471.06 934.76 476.53 923.97 482.96 C 914.05 489.63 905.32 498.65 900.74 509.84 C 897.21 517.37 896.31 525.75 895.13 533.90 C 894.99 537.69 893.52 541.84 895.66 545.34 C 899.18 552.03 902.06 559.10 903.54 566.55 C 905.10 573.26 905.10 580.17 905.88 586.99 C 906.92 597.25 907.51 607.54 908.51 617.80 C 909.22 625.15 909.18 632.56 910.24 639.87 C 932.78 644.83 955.94 646.63 979.00 646.44 C 1006.20 646.04 1033.55 643.33 1059.75 635.70 C 1068.22 633.19 1076.75 630.64 1084.69 626.68 C 1084.83 593.06 1083.62 559.39 1079.80 525.97 C 1077.65 509.71 1068.36 494.36 1054.43 485.55 C 1044.67 478.90 1033.69 474.34 1022.53 470.61 C 1021.33 470.10 1019.83 470.03 1018.97 468.99 C 1029.27 463.47 1038.58 455.70 1044.70 445.64 C 1060.66 423.14 1059.91 390.63 1043.48 368.56 C 1033.75 355.53 1019.24 345.87 1003.20 342.73 C 984.43 338.68 963.93 342.91 948.65 354.65 Z" />
</g>
<g id="#151935ff">
<path fill="#151935" opacity="1.00" d=" M 724.90 332.87 C 727.60 328.25 732.40 324.52 737.97 324.72 C 749.41 324.73 760.50 329.24 772.02 328.19 C 779.71 327.25 787.31 325.66 795.01 324.75 C 799.47 324.32 804.23 325.32 807.69 328.31 C 810.55 330.94 812.49 334.37 814.13 337.85 C 820.58 351.21 826.12 365.03 830.86 379.08 C 814.37 384.07 797.18 386.34 780.00 386.97 C 759.97 388.09 739.84 386.53 720.13 382.88 C 715.15 381.68 709.98 380.83 705.45 378.32 C 707.69 373.98 708.86 369.20 710.76 364.73 C 715.41 354.08 719.02 342.93 724.90 332.87 Z" />
<path fill="#151935" opacity="1.00" d=" M 670.00 393.80 C 679.77 393.17 689.58 392.39 699.37 393.27 C 698.86 394.84 698.37 396.43 697.92 398.03 C 704.38 401.21 711.37 403.12 718.38 404.64 C 744.47 410.12 771.47 410.93 797.93 407.89 C 811.62 406.42 825.31 403.94 838.12 398.70 C 837.80 396.87 837.47 395.04 836.72 393.34 C 846.82 392.96 856.99 392.95 867.05 394.15 C 871.59 394.78 876.29 395.44 880.39 397.65 C 882.38 398.64 883.65 401.36 882.48 403.41 C 879.99 407.96 875.12 410.41 870.69 412.71 C 853.11 420.77 834.06 424.95 815.04 427.90 C 792.84 431.00 770.34 432.62 747.94 430.86 C 720.73 428.93 693.33 424.56 668.01 414.00 C 663.45 411.79 659.01 409.16 655.27 405.72 C 653.06 403.81 651.90 399.61 654.80 397.79 C 659.39 395.15 664.83 394.51 670.00 393.80 Z" />
<path fill="#151935" opacity="1.00" d=" M 691.04 430.74 C 695.51 431.60 699.98 432.50 704.42 433.57 C 727.91 438.58 752.03 440.40 776.02 439.95 C 799.30 439.52 822.41 435.95 845.05 430.60 C 848.73 454.25 842.75 480.27 825.46 497.49 C 821.49 502.04 816.33 505.24 811.91 509.29 C 820.48 511.59 828.30 515.88 836.20 519.82 C 851.40 527.75 865.91 538.81 873.51 554.60 C 880.83 568.06 881.00 583.71 882.60 598.56 C 884.26 615.37 885.08 632.25 886.40 649.09 C 887.68 665.70 888.82 682.32 889.69 698.97 C 889.99 705.00 890.75 711.05 890.26 717.10 L 890.20 717.84 C 862.67 725.19 834.37 729.39 806.01 731.69 C 791.02 732.39 776.03 733.58 761.02 733.07 C 727.82 732.40 694.59 729.10 662.19 721.72 C 656.80 720.26 651.43 718.63 645.89 717.86 L 645.84 717.12 C 645.39 712.07 646.21 707.03 646.34 701.99 C 648.31 663.28 650.60 624.57 654.53 586.01 C 655.37 573.53 657.83 560.59 665.15 550.17 C 668.42 545.21 671.94 540.34 676.41 536.38 C 690.01 524.20 706.51 515.67 723.60 509.51 C 724.66 508.49 722.32 507.89 721.88 507.15 C 708.91 497.83 698.45 484.53 693.89 469.10 C 689.81 456.81 688.91 443.51 691.04 430.74 Z" />
<path fill="#151935" opacity="1.00" d=" M 1093.68 681.39 C 1092.64 677.17 1092.61 672.69 1094.16 668.59 C 1094.65 672.84 1094.34 677.17 1093.68 681.39 Z" />
<path fill="#151935" opacity="1.00" d=" M 600.72 819.85 C 604.44 819.15 608.22 819.25 611.99 819.33 C 714.32 819.37 816.66 819.29 918.99 819.34 C 924.09 819.49 929.27 818.79 934.31 819.90 C 910.55 820.52 886.76 819.92 863.00 820.14 C 781.67 820.09 700.33 820.11 619.00 820.11 C 612.91 820.00 606.80 820.40 600.72 819.85 Z" />
</g>
<g id="#fce181ff">
<path fill="#fce181" opacity="1.00" d=" M 699.37 393.27 C 701.39 388.29 703.17 383.19 705.45 378.32 C 709.98 380.83 715.15 381.68 720.13 382.88 C 739.84 386.53 759.97 388.09 780.00 386.97 C 797.18 386.34 814.37 384.07 830.86 379.08 C 833.25 383.66 834.40 388.73 836.72 393.34 C 837.47 395.04 837.80 396.87 838.12 398.70 C 825.31 403.94 811.62 406.42 797.93 407.89 C 771.47 410.93 744.47 410.12 718.38 404.64 C 711.37 403.12 704.38 401.21 697.92 398.03 C 698.37 396.43 698.86 394.84 699.37 393.27 Z" />
</g>
</svg>
