<?xml version="1.0" encoding="utf-8"?>
<!-- Generator: Adobe Illustrator 25.4.1, SVG Export Plug-In . SVG Version: 6.00 Build 0)  -->
<svg version="1.1" id="Capa_1" xmlns="http://www.w3.org/2000/svg" xmlns:xlink="http://www.w3.org/1999/xlink" x="0px" y="0px"
	 viewBox="0 0 1080 1920" style="enable-background:new 0 0 1080 1920;" xml:space="preserve">
<style type="text/css">
	.st0{fill:#FCE6D7;}
	.st1{fill:#E4572E;fill-opacity:0.15;}
	.st2{fill:#0EA5A4;fill-opacity:0.14;}
	.st3{fill:#FFFFFF;fill-opacity:0.28;}
	.st4{fill:#101827;fill-opacity:8.000000e-02;}
	.st5{fill:#101827;}
	.st6{font-family:'SegoeUI-Bold';}
	.st7{font-size:22px;}
	.st8{letter-spacing:1;}
	.st9{font-size:82px;}
	.st10{letter-spacing:-1;}
	.st11{fill:#334155;}
	.st12{font-family:'SegoeUI-Semibold';}
	.st13{font-size:30px;}
	.st14{fill:#111827;}
	.st15{fill:#F8FAFC;}
	.st16{fill:#283548;}
	.st17{fill:#E4572E;fill-opacity:0.14;}
	.st18{fill:#CBD5E1;}
	.st19{fill:#E2E8F0;}
	.st20{fill:#0EA5A4;fill-opacity:0.12;}
	.st21{fill:#FFF7ED;}
	.st22{font-size:24px;}
	.st23{fill:#FFFFFF;fill-opacity:0.88;}
</style>
<rect class="st0" width="1080" height="1920"/>
<circle class="st1" cx="916" cy="156" r="192"/>
<circle class="st2" cx="122" cy="1718" r="184"/>
<path class="st3" d="M0,226c168-64,322-78,468-24c156,58,316,54,612-66V0H0V226z"/>
<path class="st4" d="M79.6,70h376.9c15.2,0,27.6,11.2,27.6,25l0,0c0,13.8-12.3,25-27.6,25H79.6C64.3,120,52,108.8,52,95l0,0
	C52,81.2,64.3,70,79.6,70z"/>
<text transform="matrix(1 0 0 1 61.9929 103)" class="st5 st6 st7 st8">DEDUCCION SOCIAL EN UN MOVIL</text>
<text transform="matrix(1 0 0 1 72 190)" class="st5 st6 st9 st10">SIN MODERADOR</text>
<text transform="matrix(1 0 0 1 72 282)" class="st5 st6 st9 st10">OBLIGADO</text>
<text transform="matrix(1 0 0 1 72 448)" class="st11 st12 st13">Un solo telefono reparte roles</text>
<text transform="matrix(1 0 0 1 72 490)" class="st11 st12 st13">para que nadie se quede fuera.</text>
<g id="phone">
	<path class="st14" d="M352,560h376c36.5,0,66,29.5,66,66v956c0,36.5-29.5,66-66,66H352c-36.5,0-66-29.5-66-66V626
		C286,589.5,315.5,560,352,560z"/>
	<path class="st15" d="M348,612h384c18.8,0,34,15.2,34,34v914c0,18.8-15.2,34-34,34H348c-18.8,0-34-15.2-34-34V646
		C314,627.2,329.2,612,348,612z"/>
	<path class="st16" d="M468,582h144c4.4,0,8,3.6,8,8l0,0c0,4.4-3.6,8-8,8H468c-4.4,0-8-3.6-8-8l0,0C460,585.6,463.6,582,468,582z"/>
	<circle class="st16" cx="700" cy="590" r="7"/>
	<path class="st17" d="M368,646h344c13.3,0,24,10.7,24,24v298c0,13.3-10.7,24-24,24H368c-13.3,0-24-10.7-24-24V670
		C344,656.7,354.7,646,368,646z"/>
	<path class="st18" d="M356,1026h368c6.6,0,12,5.4,12,12l0,0c0,6.6-5.4,12-12,12H356c-6.6,0-12-5.4-12-12l0,0
		C344,1031.4,349.4,1026,356,1026z"/>
	<path class="st19" d="M356,1070h290c6.6,0,12,5.4,12,12l0,0c0,6.6-5.4,12-12,12H356c-6.6,0-12-5.4-12-12l0,0
		C344,1075.4,349.4,1070,356,1070z"/>
	<path class="st20" d="M368,1140h344c13.3,0,24,10.7,24,24v234c0,13.3-10.7,24-24,24H368c-13.3,0-24-10.7-24-24v-234
		C344,1150.7,354.7,1140,368,1140z"/>
	<path class="st5" d="M421,1470h238c21.5,0,39,17.5,39,39l0,0c0,21.5-17.5,39-39,39H421c-21.5,0-39-17.5-39-39l0,0
		C382,1487.5,399.5,1470,421,1470z"/>
	<text transform="matrix(1 0 0 1 442.1265 1260)" class="st5 st6 st13">PON AQUI TU</text>
	<text transform="matrix(1 0 0 1 430.5615 1302)" class="st5 st6 st13">CAPTURA REAL</text>
	<text transform="matrix(1 0 0 1 422.168 1518)" class="st21 st6 st22">HUECO DE CAPTURA</text>
</g>
<path class="st5" d="M217,1710h226c20.4,0,37,16.6,37,37l0,0c0,20.4-16.6,37-37,37H217c-20.4,0-37-16.6-37-37l0,0
	C180,1726.6,196.6,1710,217,1710z"/>
<text transform="matrix(1 0 0 1 247.0166 1757)" class="st21 st6 st7">JUEGAN TODOS</text>
<path class="st23" d="M637,1710h226c20.4,0,37,16.6,37,37l0,0c0,20.4-16.6,37-37,37H637c-20.4,0-37-16.6-37-37l0,0
	C600,1726.6,616.6,1710,637,1710z"/>
<text transform="matrix(1 0 0 1 675.4492 1757)" class="st5 st6 st7">UN TELEFONO</text>
</svg>
